<svg width="174" height="174" viewBox="0 0 174 174" fill="none" xmlns="http://www.w3.org/2000/svg">
<circle cx="87" cy="87" r="85" stroke="black" stroke-width="4"/>
<path d="M106.971 118H67.0288C61.5092 118 57 113.491 57 107.971V68.0287C57 62.5092 61.5092 58 67.0288 58H106.971C112.491 58 117 62.5092 117 68.0287V107.971C117 113.515 112.515 118 106.971 118Z" stroke="black" stroke-width="4"/>
<path d="M76.1212 98.9035C79.0288 101.811 82.8974 103.413 87.0123 103.413C91.1273 103.413 94.9713 101.811 97.9035 98.9035C100.811 95.9959 102.413 92.1273 102.413 88.0123C102.413 83.8974 100.811 80.0288 97.9035 77.1212C94.9959 74.2136 91.1273 72.6119 87.0123 72.6119C82.8974 72.6119 79.0288 74.2136 76.1212 77.1212C73.2136 80.0288 71.6119 83.8974 71.6119 88.0123C71.6119 92.1273 73.2136 95.9959 76.1212 98.9035Z" stroke="black" stroke-width="4"/>
<path d="M105.415 72.1059C107.048 72.1059 108.371 70.782 108.371 69.1489C108.371 67.5158 107.048 66.192 105.415 66.192C103.781 66.192 102.458 67.5158 102.458 69.1489C102.458 70.782 103.781 72.1059 105.415 72.1059Z" stroke="black" stroke-width="4"/>
</svg>
