<svg width="174" height="174" viewBox="0 0 174 174" fill="none" xmlns="http://www.w3.org/2000/svg">
<circle cx="87" cy="87" r="85" stroke="black" stroke-width="4"/>
<path d="M119.619 73.1393C117.84 69.209 115.287 65.6803 112.045 62.6393C108.803 59.627 105.045 57.2459 100.857 55.582C96.5247 53.8607 91.9345 53 87.2009 53C82.4673 53 77.8771 53.8607 73.5451 55.582C69.3566 57.2459 65.5984 59.5984 62.3566 62.6393C59.1148 65.6803 56.5615 69.209 54.7828 73.1393C52.9468 77.2131 52 81.5738 52 86.0492C52 93.8811 54.9262 101.398 60.291 107.365L57.4221 123L72.6845 116.201C77.2459 118.152 82.0943 119.127 87.1722 119.127C91.9058 119.127 96.496 118.266 100.828 116.545C105.016 114.881 108.775 112.529 112.016 109.488C115.258 106.447 117.811 102.918 119.59 98.9877C121.426 94.9139 122.373 90.5533 122.373 86.0779C122.402 81.5738 121.455 77.2418 119.619 73.1393Z" stroke="black" stroke-width="4"/>
<path d="M101.488 92.6474C99.9961 91.9015 98.906 91.4425 98.1314 91.1556C97.6437 90.9835 96.4961 90.4671 96.0945 90.7827C94.8322 91.8155 93.4838 94.7417 92.0494 95.2868C88.492 94.5982 85.1929 92.1597 82.6109 89.6638C81.4633 88.5737 79.3404 85.4753 78.8814 84.6433C78.7953 83.7827 80.3444 82.6351 80.6887 81.9753C82.4674 79.9671 81.1191 78.7048 80.8896 77.8728C80.4879 77.0122 79.7994 75.463 79.197 74.2007C78.6806 73.3687 78.5657 72.1351 77.6477 71.6761C73.746 69.6679 71.5085 73.6843 70.5904 75.7786C65.0535 89.1187 98.3322 114.508 105.103 97.0081C105.447 95.4876 105.303 94.9138 104.787 94.2253C103.754 93.5081 102.549 93.1925 101.488 92.6474Z" stroke="black" stroke-width="4"/>
</svg>
